<?xml version="1.0" encoding="utf-8"?>
<!-- Generator: Adobe Illustrator 21.0.2, SVG Export Plug-In . SVG Version: 6.00 Build 0)  -->
<svg version="1.1" id="Layer_1" xmlns="http://www.w3.org/2000/svg" xmlns:xlink="http://www.w3.org/1999/xlink" x="0px" y="0px"
	 viewBox="0 0 370 43.2" style="enable-background:new 0 0 370 43.2;" xml:space="preserve">
<style type="text/css">
	.st0{fill:#4E2A84;}
</style>
<g>
	<polygon class="st0" points="0.8,11.6 0.8,12.5 3.1,15.1 3.1,32.7 0,33.5 0,34.6 8.4,34.6 8.4,33.5 5.7,32.8 5,32 5,17.3 
		19.7,34.7 21,34.7 21,13.8 24.1,12.9 24.1,11.8 15.6,11.8 15.6,13 18.3,13.7 19,14.5 19,28.4 18.9,28.4 18.8,28.4 4.6,11.6 	"/>
	<path class="st0" d="M32.1,35c-4.1,0-8.1-2.7-8.1-8.3c0-5.6,4.2-8.4,8.1-8.4c4.1,0,8.2,2.5,8.2,8.2C40.3,31.8,36,35,32.1,35z
		 M37.1,26.9c0-3.9-2.1-7.1-5.4-7.1c-3,0-4.4,2.6-4.4,6.4c0,3.9,1.9,7.2,5.3,7.2C35.6,33.4,37.1,30.7,37.1,26.9z"/>
	<path class="st0" d="M81.9,25.2c0-3.9-2.2-4.6-4.7-4.6c-2.1,0-3.5,1.6-3.5,1.6l0,2.5v7.4l0.7,0.8l2.2,0.8l0,0.9h-8v-0.9l2.3-0.9
		l0-16.6c0-3-0.8-3.8-2.4-3.8v-0.8l5.1-1.7h0.3c0,0-0.2,3.5-0.2,6.2v4.8c0,0,3.3-2.7,5.6-2.7c2.8,0,5.4,1.2,5.4,5.3l0,8.5l0.7,0.8
		l2.2,0.8l0,0.9h-8v-0.9l2.2-0.8L81.9,25.2z"/>
	<path class="st0" d="M114.4,25.7c0,4.8,2.7,6.8,5.8,6.8c1.9,0,4.2-0.8,4.2-0.8l0.3,0.7c-0.8,0.8-3.1,2.6-6,2.6
		c-3.9,0-7.4-2.9-7.4-8.3c0-4.9,3.4-8.4,7.6-8.4c3.3,0,5.8,2,5.8,5.7c0,1-0.2,1.8-0.2,1.8H114.4z M119.5,24.4
		c1.7-0.1,2.2-0.4,2.2-2.1c0-1.4-1-2.5-3.2-2.5c-2.3,0-4.1,2-4.1,4.8L119.5,24.4z"/>
	<path class="st0" d="M128.5,34.3c-0.2-0.1-0.9-0.4-0.9-1.2l-0.2-3.3h1.5c0.4,2.2,1.9,3.7,3.9,3.7c2,0,2.8-1,2.8-2.4
		c0-1.3-1.1-2-2.4-2.7l-1.8-0.9c-2.5-1.3-3.8-2.3-3.8-4.8c0-3.1,2.2-4.6,5.7-4.6c2.4,0,4.3,0.9,4.3,0.9l-0.4,4h-1.4
		c0-2.5-1-3.4-3.1-3.4c-1.4,0-2.7,0.6-2.7,1.9c0,1.1,0.4,1.6,3.2,3l1.6,0.8c2.8,1.4,3.6,2.7,3.6,5c0,2.8-2.8,4.5-5.6,4.5
		C131.1,35,129.5,34.7,128.5,34.3z"/>
	<path class="st0" d="M155.6,25.7c0,4.8,2.7,6.8,5.8,6.8c1.9,0,4.2-0.8,4.2-0.8l0.3,0.7c-0.8,0.8-3.1,2.6-6,2.6
		c-3.9,0-7.4-2.9-7.4-8.3c0-4.9,3.4-8.4,7.6-8.4c3.3,0,5.8,2,5.8,5.7c0,1-0.2,1.8-0.2,1.8H155.6z M160.7,24.4
		c1.7-0.1,2.2-0.4,2.2-2.1c0-1.4-1-2.5-3.2-2.5c-2.3,0-4.1,2-4.1,4.8L160.7,24.4z"/>
	<path class="st0" d="M198,32.9l-0.7-0.8l0-8.7c0-4-2.6-5.2-5.3-5.2c-2.3,0-5.5,2.7-5.5,2.7c0-1.4,0.1-2.8,0.1-2.8h-0.3l-5,1.8v0.8
		c1.9,0,2.4,1.7,2.4,4.8v7.2l-2.3,0.9v0.9h7.9l0.1-0.9l-2.2-0.8l-0.7-0.8l0-9.9c0,0,1.2-1.6,3.4-1.6c2.2,0,4.5,0.8,4.5,4.6l-0.1,7.6
		l-2.2,0.8v0.9h7.9l0.1-0.9L198,32.9z"/>
	<path class="st0" d="M102.4,34.7l-3.7-10.2l-4.2,10.2h-1.4l-4.2-12.6c-0.6-1.6-0.9-2.5-2-2.5v-1h6.8v1l-2.1,0.7l3.1,10.5l2.7-6.5
		l0.6-1.7l-0.9-2.7l-1.2-0.3v-1h6.6v1l-2.1,0.6l3.5,10.5l3.6-10.4l-2.3-0.8v-0.9h6.2v1c-1.4,0.2-2.1,0.6-3.2,3.4L104,34.7H102.4z"/>
	<path class="st0" d="M66.6,32.2c0,0-1,0.6-2.4,0.6c-1.6,0-3-0.9-2.9-3l0.1-9h5.1l0,0h0l0.1-0.6h0l0.3-2.8l-0.7-0.1l-0.5,1.1
		l-0.3,0.2l-4.1,0.2v0l0,0v-4.1l-2,0.3l-0.9,3.9l-2.8,0.3v1.3c1.6,0,2.8,0.1,2.8,1.6c0,1.5-0.1,6.1-0.1,8c0,3.5,1.3,4.8,3.6,4.8
		c1.9,0,3.5-0.8,5-2L66.6,32.2z"/>
	<path class="st0" d="M151,32.2c0,0-1,0.6-2.4,0.6c-1.6,0-3-0.9-2.9-3l0.1-9h5.1l0,0h0l0.1-0.6h0l0.3-2.8l-0.7-0.1l-0.5,1.1
		l-0.3,0.2l-4.1,0.2v0h0v-4.1l-2,0.3l-0.9,3.9l-2.8,0.3v1.3c1.5,0,2.8,0.1,2.8,1.6c0,1.5-0.1,6.1-0.1,8c0,3.5,1.3,4.8,3.6,4.8
		c1.9,0,3.5-0.8,5-2L151,32.2z"/>
	<path class="st0" d="M53.8,18.4L53.8,18.4L53.8,18.4c0,0-0.6-0.2-1.7-0.2c-2.4,0-4.9,3.8-4.9,3.8c0-2.1,0.1-3.9,0.1-3.9H47L42,19.9
		v0.8c1.9,0,2.4,1.7,2.4,4.5v7.5l-2.3,0.9v0.9h7.9l0-0.9l-2.2-0.8l-0.7-0.8v-7.4c0-2.3,1.8-3.5,3.7-3.5c0.4,0,0.8,0.1,1.1,0.2
		l0.5,0.8l0.7,0.1L53.8,18.4L53.8,18.4L53.8,18.4z"/>
	<path class="st0" d="M179.8,18.4L179.8,18.4L179.8,18.4c0,0-0.6-0.2-1.7-0.2c-2.4,0-4.9,3.8-4.9,3.8c0-2.1,0.1-3.9,0.1-3.9h-0.3
		l-4.9,1.8v0.8c1.9,0,2.4,1.7,2.4,4.5v7.5l-2.3,0.9v0.9h7.9l0-0.9l-2.2-0.8l-0.7-0.8v-7.4c0-2.3,1.8-3.5,3.7-3.5
		c0.4,0,0.8,0.1,1.1,0.2l0.5,0.8l0.7,0.1L179.8,18.4L179.8,18.4L179.8,18.4z"/>
</g>
<g>
	<path class="st0" d="M208.8,43.2V0h1.2v43.2H208.8z"/>
</g>
<g>
	<path class="st0" d="M224.4,13V8l-1.8,4.8h-0.9L219.9,8v5h-1.2V6.1h1.7l1.8,4.9l1.8-4.9h1.6V13H224.4z"/>
	<path class="st0" d="M231,12.3c-0.4,0.4-1,0.8-1.7,0.8c-0.8,0-1.4-0.4-1.8-0.8c-0.4-0.5-0.6-1.1-0.6-1.9s0.2-1.4,0.6-1.9
		c0.4-0.4,1-0.8,1.8-0.8c0.8,0,1.4,0.4,1.7,0.8c0.2,0.3,0.4,0.7,0.4,1.1h-1.2c0-0.2-0.1-0.3-0.1-0.5c-0.1-0.2-0.4-0.4-0.8-0.4
		c-0.3,0-0.6,0.1-0.7,0.3c-0.3,0.3-0.3,0.8-0.3,1.3s0,1,0.3,1.3c0.2,0.2,0.4,0.3,0.7,0.3c0.4,0,0.6-0.2,0.8-0.4
		c0.1-0.1,0.1-0.3,0.1-0.5h1.2C231.3,11.6,231.2,12,231,12.3z"/>
	<path class="st0" d="M237,12.3c-0.5,0.5-1.2,0.8-2,0.8c-0.7,0-1.4-0.2-2-0.8c-0.8-0.8-0.9-1.7-0.9-2.8c0-1.1,0.1-2.1,0.9-2.8
		c0.5-0.5,1.2-0.8,2-0.8c0.7,0,1.5,0.3,2,0.8c0.4,0.4,0.6,1,0.7,1.5h-1.3c0-0.3-0.1-0.5-0.3-0.7c-0.2-0.3-0.6-0.4-1-0.4
		c-0.4,0-0.8,0.2-1.1,0.5c-0.5,0.5-0.5,1.4-0.5,2c0,0.6,0,1.5,0.5,2c0.3,0.3,0.7,0.5,1.1,0.5c0.4,0,0.8-0.2,1-0.4
		c0.2-0.2,0.3-0.5,0.3-0.8h1.3C237.7,11.3,237.4,11.9,237,12.3z"/>
	<path class="st0" d="M243.4,12.3c-0.5,0.5-1.2,0.8-2,0.8c-0.7,0-1.5-0.3-2-0.8c-0.8-0.8-0.9-1.7-0.9-2.8c0-1.1,0.1-2.1,0.9-2.8
		c0.5-0.5,1.2-0.8,2-0.8c0.7,0,1.5,0.3,2,0.8c0.8,0.8,0.9,1.7,0.9,2.8C244.3,10.6,244.2,11.6,243.4,12.3z M242.5,7.5
		c-0.3-0.3-0.7-0.5-1.1-0.5c-0.4,0-0.8,0.2-1.1,0.5c-0.5,0.5-0.5,1.4-0.5,2c0,0.6,0,1.5,0.5,2c0.3,0.3,0.7,0.5,1.1,0.5
		c0.4,0,0.8-0.2,1.1-0.5c0.5-0.5,0.5-1.3,0.5-2C243,8.9,243,8,242.5,7.5z"/>
	<path class="st0" d="M249.5,13l-1.2-2.6h-1.5V13h-1.3V6.1h2.9c1.6,0,2.4,1,2.4,2.1c0,0.9-0.5,1.7-1.3,1.9l1.3,2.8H249.5z
		 M248.5,7.2h-1.7v2.1h1.7c0.7,0,1.1-0.4,1.1-1C249.6,7.6,249.2,7.2,248.5,7.2z"/>
	<path class="st0" d="M257.8,13V8l-1.8,4.8h-0.9L253.3,8v5h-1.2V6.1h1.7l1.8,4.9l1.8-4.9h1.6V13H257.8z"/>
	<path class="st0" d="M260.6,13V6.1h1.3V13H260.6z"/>
	<path class="st0" d="M267.9,12.3c-0.5,0.5-1.2,0.8-2,0.8c-0.7,0-1.4-0.2-2-0.8c-0.8-0.8-0.9-1.7-0.9-2.8c0-1.1,0.1-2.1,0.9-2.8
		c0.5-0.5,1.2-0.8,2-0.8c0.7,0,1.5,0.3,2,0.8c0.4,0.4,0.6,1,0.7,1.5h-1.3c0-0.3-0.1-0.5-0.3-0.7c-0.2-0.3-0.6-0.4-1-0.4
		c-0.4,0-0.8,0.2-1.1,0.5c-0.5,0.5-0.5,1.4-0.5,2c0,0.6,0,1.5,0.5,2c0.3,0.3,0.7,0.5,1.1,0.5c0.4,0,0.8-0.2,1-0.4
		c0.2-0.2,0.3-0.5,0.3-0.8h1.3C268.5,11.3,268.3,11.9,267.9,12.3z"/>
	<path class="st0" d="M274,13l-1.9-3.3l-1.2,1.4V13h-1.3V6.1h1.3v3.2l2.8-3.2h1.5l-2.2,2.6l2.5,4.3H274z"/>
	<path class="st0" d="M283.4,12.4c-0.5,0.5-1.2,0.7-2,0.7c-0.8,0-1.5-0.2-2-0.7c-0.4-0.4-0.7-1-0.7-1.7h0.9c0,0.4,0.2,0.8,0.5,1.1
		c0.3,0.3,0.8,0.4,1.3,0.4c0.5,0,1-0.1,1.3-0.4c0.2-0.2,0.4-0.4,0.4-0.8c0-0.5-0.3-1-1.2-1.1l-1.1-0.2c-1-0.2-1.8-0.7-1.8-1.8
		c0-0.5,0.2-1,0.6-1.4c0.5-0.4,1.1-0.7,1.8-0.7c0.7,0,1.3,0.2,1.8,0.7c0.4,0.4,0.6,0.9,0.7,1.5h-0.9c0-0.3-0.1-0.6-0.3-0.9
		c-0.3-0.3-0.7-0.5-1.2-0.5c-0.5,0-0.9,0.1-1.2,0.5c-0.2,0.2-0.3,0.4-0.3,0.8c0,0.6,0.5,0.9,1,1c0.4,0,0.8,0.1,1.2,0.2
		c1.2,0.2,1.9,0.9,1.9,2C284,11.6,283.7,12.1,283.4,12.4z"/>
	<path class="st0" d="M289.7,12.4c-0.4,0.4-1.1,0.7-1.9,0.7c-0.7,0-1.4-0.3-1.9-0.7c-0.8-0.7-0.9-1.7-0.9-2.8c0-1.1,0.1-2.1,0.9-2.8
		c0.5-0.5,1.2-0.7,1.9-0.7c0.8,0,1.4,0.3,1.8,0.7c0.4,0.4,0.7,0.9,0.7,1.6h-0.9c0-0.4-0.2-0.7-0.4-1c-0.3-0.3-0.7-0.5-1.2-0.5
		c-0.5,0-0.9,0.2-1.3,0.5C286,7.9,286,8.8,286,9.5c0,0.7,0,1.7,0.6,2.2c0.3,0.3,0.8,0.5,1.3,0.5c0.5,0,1-0.2,1.3-0.5
		c0.2-0.3,0.4-0.6,0.4-1h0.9C290.3,11.4,290.1,12,289.7,12.4z"/>
	<path class="st0" d="M295.9,13V9.8h-3.3V13h-0.9V6.1h0.9v2.9h3.3V6.1h0.9V13H295.9z"/>
	<path class="st0" d="M302.9,12.4c-0.5,0.5-1.2,0.7-1.9,0.7c-0.7,0-1.4-0.3-1.9-0.7c-0.8-0.7-0.9-1.7-0.9-2.8c0-1.1,0.1-2.1,0.9-2.8
		c0.5-0.5,1.2-0.7,1.9-0.7c0.7,0,1.4,0.3,1.9,0.7c0.8,0.7,0.9,1.7,0.9,2.8C303.8,10.6,303.6,11.6,302.9,12.4z M302.3,7.3
		c-0.3-0.3-0.8-0.5-1.3-0.5c-0.5,0-0.9,0.2-1.3,0.5c-0.6,0.6-0.6,1.5-0.6,2.2c0,0.7,0,1.7,0.6,2.2c0.3,0.3,0.8,0.5,1.3,0.5
		c0.5,0,0.9-0.2,1.3-0.5c0.6-0.6,0.6-1.5,0.6-2.2C302.9,8.8,302.9,7.9,302.3,7.3z"/>
	<path class="st0" d="M309.6,12.4c-0.5,0.5-1.2,0.7-1.9,0.7c-0.7,0-1.4-0.3-1.9-0.7c-0.8-0.7-0.9-1.7-0.9-2.8c0-1.1,0.1-2.1,0.9-2.8
		c0.5-0.5,1.2-0.7,1.9-0.7c0.7,0,1.4,0.3,1.9,0.7c0.8,0.7,0.9,1.7,0.9,2.8C310.4,10.6,310.3,11.6,309.6,12.4z M308.9,7.3
		c-0.3-0.3-0.8-0.5-1.3-0.5c-0.5,0-0.9,0.2-1.3,0.5c-0.6,0.6-0.6,1.5-0.6,2.2c0,0.7,0,1.7,0.6,2.2c0.3,0.3,0.8,0.5,1.3,0.5
		c0.5,0,0.9-0.2,1.3-0.5c0.6-0.6,0.6-1.5,0.6-2.2C309.5,8.8,309.5,7.9,308.9,7.3z"/>
	<path class="st0" d="M311.9,13V6.1h0.9v6.1h3.3V13H311.9z"/>
	<path class="st0" d="M323.9,12.4c-0.5,0.5-1.2,0.7-1.9,0.7c-0.7,0-1.4-0.3-1.9-0.7c-0.8-0.7-0.9-1.7-0.9-2.8c0-1.1,0.1-2.1,0.9-2.8
		c0.5-0.5,1.2-0.7,1.9-0.7c0.7,0,1.4,0.3,1.9,0.7c0.8,0.7,0.9,1.7,0.9,2.8C324.8,10.6,324.7,11.6,323.9,12.4z M323.3,7.3
		c-0.3-0.3-0.8-0.5-1.3-0.5c-0.5,0-0.9,0.2-1.3,0.5c-0.6,0.6-0.6,1.5-0.6,2.2c0,0.7,0,1.7,0.6,2.2c0.3,0.3,0.8,0.5,1.3,0.5
		c0.5,0,0.9-0.2,1.3-0.5c0.6-0.6,0.6-1.5,0.6-2.2C323.9,8.8,323.9,7.9,323.3,7.3z"/>
	<path class="st0" d="M327.2,6.9v2.3h3.2v0.8h-3.2v3h-0.9V6.1h4.5v0.8H327.2z"/>
</g>
<g>
	<path class="st0" d="M218.7,34.6V17.3h11.5v2h-9.4v5.3h8.2v2h-8.2v6h9.4v2H218.7z"/>
	<path class="st0" d="M243.7,34.6l-8.5-13.9v13.9h-2.1V17.3h2.4l8.5,13.9V17.3h2.1v17.3H243.7z"/>
	<path class="st0" d="M261.3,34.6l-0.4-2.1c-0.9,1.4-2.8,2.4-4.7,2.4c-1.7,0-3.4-0.6-4.7-1.8c-1.8-1.7-2.2-4.1-2.2-7.2
		c0-2.8,0.4-5.3,2.2-7.1c1.2-1.2,2.9-1.9,4.7-1.9c1.9,0,3.8,0.7,4.9,1.9c0.8,0.9,1.4,2,1.5,3.4h-2.3c-0.1-0.8-0.3-1.4-0.8-1.9
		c-0.8-0.9-2-1.4-3.4-1.4c-1.2,0-2.3,0.5-3.1,1.3c-1.4,1.5-1.5,3.8-1.5,5.6c0,1.7,0.1,4.2,1.6,5.7c0.8,0.9,1.9,1.2,3.1,1.2
		c1.2,0,2.4-0.4,3.1-1.2c1.1-1.1,1.5-2.8,1.5-4.4h-4.6v-2h6.6v9.3H261.3z"/>
	<path class="st0" d="M266.5,34.6V17.3h2.2v17.3H266.5z"/>
	<path class="st0" d="M283.3,34.6l-8.5-13.9v13.9h-2.1V17.3h2.4l8.5,13.9V17.3h2.1v17.3H283.3z"/>
	<path class="st0" d="M289.7,34.6V17.3h11.5v2h-9.4v5.3h8.2v2h-8.2v6h9.4v2H289.7z"/>
	<path class="st0" d="M304.2,34.6V17.3h11.5v2h-9.4v5.3h8.2v2h-8.2v6h9.4v2H304.2z"/>
	<path class="st0" d="M328.8,34.6l-3.3-7.2h-4.8v7.2h-2.2V17.3h6.8c2,0,3.4,0.6,4.4,1.5c0.8,0.9,1.4,2,1.4,3.5s-0.5,2.5-1.3,3.4
		c-0.5,0.5-1.2,0.9-2.1,1.2l3.5,7.6H328.8z M325.3,19.3h-4.6v6.1h4.6c2,0,3.5-0.8,3.5-3C328.9,20.2,327.4,19.3,325.3,19.3z"/>
	<path class="st0" d="M334.1,34.6V17.3h2.2v17.3H334.1z"/>
	<path class="st0" d="M350.9,34.6l-8.5-13.9v13.9h-2.1V17.3h2.4l8.5,13.9V17.3h2.1v17.3H350.9z"/>
	<path class="st0" d="M368.5,34.6l-0.4-2.1c-0.9,1.4-2.8,2.4-4.7,2.4c-1.7,0-3.4-0.6-4.7-1.8c-1.8-1.7-2.2-4.1-2.2-7.2
		c0-2.8,0.4-5.3,2.2-7.1c1.2-1.2,2.9-1.9,4.7-1.9c1.9,0,3.8,0.7,4.9,1.9c0.8,0.9,1.4,2,1.5,3.4h-2.3c-0.1-0.8-0.3-1.4-0.8-1.9
		c-0.8-0.9-2-1.4-3.4-1.4c-1.2,0-2.3,0.5-3.1,1.3c-1.4,1.5-1.5,3.8-1.5,5.6c0,1.7,0.1,4.2,1.6,5.7c0.8,0.9,1.9,1.2,3.1,1.2
		c1.2,0,2.4-0.4,3.1-1.2c1.1-1.1,1.5-2.8,1.5-4.4h-4.6v-2h6.6v9.3H368.5z"/>
</g>
</svg>
