<?xml version="1.0" encoding="utf-8"?>
<!-- Generator: Adobe Illustrator 23.0.6, SVG Export Plug-In . SVG Version: 6.00 Build 0)  -->
<svg version="1.1" id="Layer_1" xmlns="http://www.w3.org/2000/svg" xmlns:xlink="http://www.w3.org/1999/xlink" x="0px" y="0px"
	 viewBox="0 0 615.1 47" style="enable-background:new 0 0 615.1 47;" xml:space="preserve">
<style type="text/css">
	.st0{fill:#4F2984;}
</style>
<g>
	<g>
		<polygon id="XMLID_60_" class="st0" points="0.9,12.6 0.9,13.6 3.4,16.3 3.4,35.5 0,36.5 0,37.6 9.1,37.6 9.1,36.5 6.2,35.7 
			5.5,34.8 5.5,18.8 21.5,37.8 22.9,37.8 22.9,15 26.2,13.9 26.2,12.8 17,12.8 17,14.1 19.9,14.8 20.6,15.7 20.6,30.9 20.6,30.9 
			20.5,30.9 5,12.6 		"/>
		<path class="st0" d="M35,38c-4.5,0-8.8-2.9-8.8-9s4.6-9.2,8.8-9.2c4.4,0,8.9,2.8,8.9,8.9C43.9,34.6,39.2,38,35,38z M40.4,29.2
			c0-4.2-2.3-7.8-5.9-7.8c-3.2,0-4.8,2.8-4.8,7s2,7.9,5.8,7.9C38.7,36.3,40.4,33.4,40.4,29.2z"/>
		<path class="st0" d="M89.2,27.4c0-4.2-2.4-5-5.1-5c-2.3,0-3.8,1.7-3.8,1.7v2.8v8l0.7,0.9l2.4,0.8v1h-8.7v-1l2.5-0.9V17.6
			c0-3.3-0.8-4.2-2.6-4.2v-0.9l5.6-1.9h0.4c0,0-0.2,3.9-0.2,6.8v5.2c0,0,3.6-2.9,6.1-2.9c3.1,0,5.9,1.3,5.9,5.8v9.3l0.7,0.9l2.4,0.8
			v1h-8.7v-1l2.4-0.9L89.2,27.4z"/>
		<path class="st0" d="M124.7,28c0,5.2,3,7.4,6.3,7.4c2.1,0,4.6-0.9,4.6-0.9l0.4,0.7c-0.9,0.9-3.4,2.8-6.6,2.8c-4.3,0-8.1-3.2-8.1-9
			c0-5.3,3.7-9.2,8.3-9.2c3.6,0,6.3,2.1,6.3,6.2c0,1.1-0.2,2-0.2,2H124.7z M130.2,26.5c1.8-0.1,2.4-0.4,2.4-2.3
			c0-1.6-1.1-2.8-3.5-2.8c-2.5,0-4.4,2.2-4.4,5.2L130.2,26.5z"/>
		<path class="st0" d="M140,37.3c-0.3-0.1-0.9-0.5-1-1.3l-0.2-3.6h1.7c0.4,2.4,2.1,4,4.2,4c2.2,0,3-1.1,3-2.6c0-1.4-1.2-2.2-2.6-2.9
			l-1.9-1c-2.7-1.4-4.1-2.5-4.1-5.2c0-3.4,2.4-5,6.2-5c2.7,0,4.7,1,4.7,1l-0.5,4.4H148c0-2.7-1.1-3.8-3.4-3.8c-1.5,0-3,0.6-3,2.1
			c0,1.2,0.5,1.7,3.5,3.3l1.7,0.9c3.1,1.6,3.9,2.9,3.9,5.4c0,3.1-3.1,4.9-6.1,4.9C142.8,38,141.1,37.8,140,37.3z"/>
		<path class="st0" d="M169.5,28c0,5.2,3,7.4,6.3,7.4c2.1,0,4.6-0.9,4.6-0.9l0.4,0.7c-0.9,0.9-3.4,2.8-6.6,2.8c-4.3,0-8.1-3.2-8.1-9
			c0-5.3,3.7-9.2,8.3-9.2c3.6,0,6.3,2.1,6.3,6.2c0,1.1-0.2,2-0.2,2H169.5z M175.1,26.5c1.8-0.1,2.4-0.4,2.4-2.3
			c0-1.6-1.1-2.8-3.5-2.8c-2.5,0-4.4,2.2-4.4,5.2L175.1,26.5z"/>
		<path id="XMLID_51_" class="st0" d="M215.7,35.8l-0.7-0.9v-9.5c0-4.4-2.9-5.6-5.8-5.6c-2.5,0-6,2.9-6,2.9c0-1.6,0.1-3,0.1-3H203
			l-5.5,2v0.9c2.1,0,2.7,1.9,2.7,5.3v7.9l-2.5,0.9v1h8.6l0.1-1l-2.4-0.8l-0.7-0.9V24.2c0,0,1.3-1.8,3.7-1.8s5,0.9,5,5l-0.1,8.3
			l-2.4,0.9v1h8.6l0.1-1L215.7,35.8z"/>
		<path id="XMLID_50_" class="st0" d="M111.6,37.8l-4-11.1L103,37.8h-1.6L96.9,24c-0.6-1.7-1-2.7-2.2-2.7v-1.1h7.4v1.1L99.8,22
			l3.4,11.4l3-7.1l0.7-1.8l-1-2.9l-1.3-0.3v-1.1h7.2v1.1l-2.3,0.7l3.8,11.4l4-11.3l-2.6-0.9v-1h6.7v1.1c-1.5,0.2-2.3,0.6-3.5,3.7
			l-4.5,12.8C113.4,37.8,111.6,37.8,111.6,37.8z"/>
		<path id="XMLID_49_" class="st0" d="M72.6,35c0,0-1.1,0.7-2.6,0.7c-1.7,0-3.2-0.9-3.2-3.3l0.2-9.8h5.6l0,0h0.1l0.1-0.6l0,0
			l0.4-3.1l-0.7-0.1L72,20l-0.3,0.3L67,20.4l0,0l0,0v-4.5l-2.2,0.4l-0.9,4.2l-3.1,0.3v1.5c1.7,0,3.1,0.2,3.1,1.8
			c0,1.6-0.2,6.7-0.2,8.7c0,3.8,1.5,5.3,3.9,5.3c2.1,0,3.8-0.9,5.4-2.1L72.6,35z"/>
		<path id="XMLID_48_" class="st0" d="M164.5,35c0,0-1.1,0.7-2.6,0.7c-1.7,0-3.2-0.9-3.2-3.3l0.2-9.8h5.6l0,0l0,0l0.1-0.6l0,0
			l0.4-3.1l-0.7-0.1l-0.5,1.2l-0.3,0.3l-4.4,0.2l0,0l0,0V16l-2.2,0.4l-0.9,4.2l-3.1,0.3v1.5c1.7,0,3.1,0.2,3.1,1.8
			c0,1.6-0.2,6.7-0.2,8.7c0,3.8,1.5,5.3,3.9,5.3c2.1,0,3.8-0.9,5.4-2.1L164.5,35z"/>
		<path id="XMLID_47_" class="st0" d="M58.6,20L58.6,20L58.6,20c0,0-0.7-0.2-1.9-0.2c-2.6,0-5.4,4.1-5.4,4.1c0-2.3,0.1-4.2,0.1-4.2
			h-0.3l-5.4,2v0.9c2,0,2.7,1.8,2.7,5v8.2L46,36.6v1h8.6v-1l-2.4-0.8l-0.7-0.9v-8c0-2.5,2-3.9,4.1-3.9c0.4,0,0.9,0.1,1.2,0.2
			l0.6,0.9l0.7,0.1L58.6,20L58.6,20L58.6,20z"/>
		<path id="XMLID_46_" class="st0" d="M195.9,20L195.9,20L195.9,20c0,0-0.7-0.2-1.9-0.2c-2.6,0-5.4,4.1-5.4,4.1
			c0-2.3,0.1-4.2,0.1-4.2h-0.3l-5.4,2v0.9c2,0,2.7,1.8,2.7,5v8.2l-2.5,0.9v1h8.6v-1l-2.4-0.8l-0.7-0.9v-8c0-2.5,2-3.9,4.1-3.9
			c0.4,0,0.9,0.1,1.2,0.2l0.6,0.9l0.7,0.1L195.9,20L195.9,20L195.9,20z"/>
	</g>
	<g>
		<path class="st0" d="M227.6,47V0h1.3v47H227.6z"/>
	</g>
	<g>
		<path class="st0" d="M238.3,37.6V18.8h12.6V21h-10.2v5.7h9v2.2h-9v6.5h10.2v2.2C250.9,37.6,238.3,37.6,238.3,37.6z"/>
		<path class="st0" d="M265.2,35.7c-1.3,1.3-3.1,1.9-4.9,1.9h-6.6V18.8h6.6c1.8,0,3.6,0.6,4.9,1.9c2.1,2,2.4,4.8,2.4,7.5
			S267.3,33.8,265.2,35.7z M263.6,22.3c-0.9-0.9-2.1-1.3-3.3-1.3h-4.2v14.5h4.2c1.2,0,2.5-0.4,3.3-1.3c1.5-1.5,1.6-3.9,1.6-5.9
			C265.2,26.2,265.1,23.8,263.6,22.3z"/>
		<path class="st0" d="M277.3,38c-4.2,0-6.9-2.5-6.9-7.2v-12h2.4v12c0,3,1.2,5,4.5,5s4.5-2,4.5-5v-12h2.4v11.9
			C284.2,35.4,281.5,38,277.3,38z"/>
		<path class="st0" d="M299.6,36c-1.1,1.1-3,2-5,2c-1.9,0-3.7-0.7-5.1-2c-2-2-2.4-4.8-2.4-7.8s0.3-5.8,2.4-7.8c1.4-1.3,3.2-2,5.1-2
			c2,0,3.9,0.8,5,1.9s1.8,2.5,1.9,4.3H299c0-1-0.4-1.9-1-2.6c-0.7-0.8-2-1.4-3.4-1.4c-1.3,0-2.5,0.5-3.4,1.4
			c-1.5,1.6-1.6,4.1-1.6,6.1s0.1,4.5,1.6,6.1c0.9,0.9,2.1,1.4,3.4,1.4c1.4,0,2.7-0.6,3.4-1.4c0.6-0.7,1-1.7,1-2.7h2.4
			C301.4,33.4,300.7,34.8,299.6,36z"/>
		<path class="st0" d="M315.8,37.6l-1.5-4.5H306l-1.5,4.5h-2.4l6.6-18.8h2.8l6.7,18.8H315.8z M310.1,21.1l-3.3,9.8h6.7L310.1,21.1z"
			/>
		<path class="st0" d="M324.3,21v16.6H322V21h-5.6v-2.2H330V21H324.3z"/>
		<path class="st0" d="M332.3,37.6V18.8h2.4v18.8H332.3z"/>
		<path class="st0" d="M350.4,36c-1.4,1.3-3.2,2-5.1,2s-3.7-0.7-5.1-2c-2-2-2.4-4.8-2.4-7.8s0.4-5.8,2.4-7.8c1.4-1.3,3.2-2,5.1-2
			s3.7,0.7,5.1,2c2,2,2.4,4.8,2.4,7.8S352.5,34,350.4,36z M348.8,22.1c-0.9-0.9-2.1-1.4-3.4-1.4s-2.5,0.5-3.4,1.4
			c-1.5,1.6-1.6,4.1-1.6,6.1s0.1,4.5,1.6,6.1c0.9,0.9,2.1,1.4,3.4,1.4s2.5-0.5,3.4-1.4c1.5-1.6,1.6-4.1,1.6-6.1
			S350.3,23.7,348.8,22.1z"/>
		<path class="st0" d="M367.5,37.6l-9.2-15.1v15.1H356V18.8h2.7l9.2,15.2V18.8h2.3v18.8H367.5z"/>
		<path class="st0" d="M392.8,37.6l-1.5-4.5H383l-1.5,4.5h-2.4l6.6-18.8h2.8l6.7,18.8H392.8z M387.1,21.1l-3.3,9.8h6.7L387.1,21.1z"
			/>
		<path class="st0" d="M409,37.6l-9.2-15.1v15.1h-2.3V18.8h2.7l9.2,15.2V18.8h2.3v18.8H409z"/>
		<path class="st0" d="M427.3,35.7c-1.3,1.3-3.1,1.9-4.9,1.9h-6.6V18.8h6.6c1.8,0,3.6,0.6,4.9,1.9c2.1,2,2.4,4.8,2.4,7.5
			C429.7,30.9,429.3,33.8,427.3,35.7z M425.7,22.3c-0.9-0.9-2.1-1.3-3.3-1.3h-4.2v14.5h4.2c1.2,0,2.5-0.4,3.3-1.3
			c1.5-1.5,1.6-3.9,1.6-5.9C427.3,26.2,427.2,23.8,425.7,22.3z"/>
		<path class="st0" d="M451.1,36.1c-1.3,1.3-3.3,1.9-5.3,1.9c-2.3,0-4.1-0.6-5.4-1.8c-1.2-1.1-2-2.7-2-4.5h2.5c0,1.1,0.6,2.2,1.3,3
			c0.8,0.8,2.3,1.2,3.6,1.2c1.4,0,2.7-0.3,3.5-1.1c0.6-0.5,1-1.2,1-2.2c0-1.5-0.9-2.7-3.2-3l-3-0.5c-2.8-0.4-5-2-5-5
			c0-1.4,0.6-2.8,1.6-3.7c1.3-1.2,3-1.9,4.9-1.9c1.8,0,3.6,0.6,4.9,1.8c1.1,1.1,1.8,2.4,1.8,4h-2.5c-0.1-0.9-0.4-1.8-0.9-2.4
			c-0.7-0.8-1.9-1.3-3.3-1.3s-2.5,0.4-3.3,1.3c-0.5,0.6-0.8,1.2-0.8,2c0,1.7,1.4,2.5,2.8,2.7c1.1,0.1,2.1,0.3,3.1,0.5
			c3.1,0.5,5.2,2.4,5.2,5.3C452.7,34,452.1,35.2,451.1,36.1z"/>
		<path class="st0" d="M467.4,36c-1.4,1.3-3.2,2-5.1,2s-3.7-0.7-5.1-2c-2-2-2.4-4.8-2.4-7.8s0.4-5.8,2.4-7.8c1.4-1.3,3.2-2,5.1-2
			s3.7,0.7,5.1,2c2,2,2.4,4.8,2.4,7.8S469.4,34,467.4,36z M465.7,22.1c-0.9-0.9-2.1-1.4-3.4-1.4s-2.5,0.5-3.4,1.4
			c-1.5,1.6-1.6,4.1-1.6,6.1s0.1,4.5,1.6,6.1c0.9,0.9,2.1,1.4,3.4,1.4s2.5-0.5,3.4-1.4c1.5-1.6,1.6-4.1,1.6-6.1
			S467.3,23.7,465.7,22.1z"/>
		<path class="st0" d="M484.6,36c-1.1,1.1-3,2-5,2c-1.9,0-3.7-0.7-5.1-2c-2-2-2.4-4.8-2.4-7.8s0.3-5.8,2.4-7.8c1.4-1.3,3.2-2,5.1-2
			c2,0,3.9,0.8,5,1.9s1.8,2.5,1.9,4.3H484c0-1-0.4-1.9-1-2.6c-0.7-0.8-2-1.4-3.4-1.4c-1.3,0-2.5,0.5-3.4,1.4
			c-1.5,1.6-1.6,4.1-1.6,6.1s0.1,4.5,1.6,6.1c0.9,0.9,2.1,1.4,3.4,1.4c1.4,0,2.7-0.6,3.4-1.4c0.6-0.7,1-1.7,1-2.7h2.4
			C486.4,33.4,485.7,34.8,484.6,36z"/>
		<path class="st0" d="M489.3,37.6V18.8h2.4v18.8H489.3z"/>
		<path class="st0" d="M507.6,37.6l-1.5-4.5h-8.2l-1.5,4.5H494l6.6-18.8h2.8l6.7,18.8H507.6z M501.9,21.1l-3.3,9.8h6.7L501.9,21.1z"
			/>
		<path class="st0" d="M512.3,37.6V18.8h2.4v16.6h9.1v2.2C523.8,37.6,512.3,37.6,512.3,37.6z"/>
		<path class="st0" d="M544.5,28.7c-1,1-2.5,1.6-4.6,1.6h-4.6v7.3h-2.4V18.8h7c2.2,0,3.8,0.6,4.8,1.7c0.9,1,1.4,2.3,1.4,4
			C546,26.3,545.5,27.7,544.5,28.7z M539.8,20.9h-4.6v7.2h4.6c2.5,0,3.8-1.2,3.8-3.7C543.6,22.1,542.1,20.9,539.8,20.9z"/>
		<path class="st0" d="M560.5,36c-1.4,1.3-3.2,2-5.1,2c-1.9,0-3.7-0.7-5.1-2c-2-2-2.4-4.8-2.4-7.8s0.4-5.8,2.4-7.8
			c1.4-1.3,3.2-2,5.1-2c1.9,0,3.7,0.7,5.1,2c2,2,2.4,4.8,2.4,7.8S562.6,34,560.5,36z M558.9,22.1c-0.9-0.9-2.2-1.4-3.4-1.4
			c-1.3,0-2.5,0.5-3.4,1.4c-1.5,1.6-1.6,4.1-1.6,6.1s0.1,4.5,1.6,6.1c0.9,0.9,2.2,1.4,3.4,1.4c1.3,0,2.5-0.5,3.4-1.4
			c1.5-1.6,1.6-4.1,1.6-6.1S560.4,23.7,558.9,22.1z"/>
		<path class="st0" d="M566.1,37.6V18.8h2.4v16.6h9.1v2.2C577.6,37.6,566.1,37.6,566.1,37.6z"/>
		<path class="st0" d="M579.9,37.6V18.8h2.4v18.8H579.9z"/>
		<path class="st0" d="M598,36c-1.1,1.1-3,2-5,2c-1.9,0-3.7-0.7-5.1-2c-2-2-2.4-4.8-2.4-7.8s0.3-5.8,2.4-7.8c1.4-1.3,3.2-2,5.1-2
			c2,0,3.9,0.8,5,1.9s1.8,2.5,1.9,4.3h-2.4c0-1-0.4-1.9-1-2.6c-0.7-0.8-2-1.4-3.4-1.4c-1.3,0-2.5,0.5-3.4,1.4
			c-1.5,1.6-1.6,4.1-1.6,6.1s0.1,4.5,1.6,6.1c0.9,0.9,2.1,1.4,3.4,1.4c1.4,0,2.7-0.6,3.4-1.4c0.6-0.7,1-1.7,1-2.7h2.4
			C599.8,33.4,599.1,34.8,598,36z"/>
		<path class="st0" d="M608.8,30v7.6h-2.4V30l-6.3-11.2h2.7l4.9,8.9l4.9-8.9h2.5L608.8,30z"/>
	</g>
	<g>
		<g id="XMLID_294_">
			<path id="XMLID_312_" class="st0" d="M243.7,13.4c-0.5,0.5-1.3,0.8-2.1,0.8c-0.9,0-1.6-0.3-2.2-0.7c-0.5-0.4-0.8-1.1-0.8-1.8h1
				c0,0.4,0.2,0.9,0.5,1.2s0.9,0.5,1.4,0.5c0.6,0,1.1-0.1,1.4-0.4c0.2-0.2,0.4-0.5,0.4-0.9c0-0.6-0.4-1.1-1.3-1.2l-1.2-0.2
				c-1.1-0.2-2-0.8-2-2c0-0.6,0.3-1.1,0.7-1.5c0.5-0.5,1.2-0.7,2-0.7c0.7,0,1.5,0.2,2,0.7c0.5,0.4,0.7,1,0.7,1.6h-1
				c0-0.4-0.2-0.7-0.4-0.9c-0.3-0.3-0.7-0.5-1.3-0.5c-0.5,0-1,0.1-1.3,0.5c-0.2,0.2-0.3,0.5-0.3,0.8c0,0.7,0.6,1,1.1,1.1
				c0.4,0.1,0.8,0.1,1.3,0.2c1.3,0.2,2.1,0.9,2.1,2.1C244.4,12.6,244.1,13.1,243.7,13.4z"/>
			<path id="XMLID_310_" class="st0" d="M250.4,13.4c-0.5,0.5-1.2,0.8-2,0.8s-1.5-0.3-2-0.8c-0.8-0.8-0.9-1.9-0.9-3.1
				s0.1-2.3,0.9-3.1c0.5-0.5,1.3-0.8,2-0.8c0.8,0,1.6,0.3,2,0.8c0.4,0.4,0.7,1,0.7,1.7h-1c0-0.4-0.2-0.8-0.4-1.1
				c-0.3-0.3-0.8-0.6-1.4-0.6c-0.5,0-1,0.2-1.4,0.6c-0.6,0.6-0.6,1.7-0.6,2.4s0,1.8,0.6,2.4c0.4,0.4,0.9,0.6,1.4,0.6
				c0.6,0,1.1-0.2,1.4-0.6c0.2-0.3,0.4-0.7,0.4-1.1h1C251.1,12.4,250.8,12.9,250.4,13.4z"/>
			<path id="XMLID_308_" class="st0" d="M257,14v-3.5h-3.6V14h-0.9V6.5h0.9v3.1h3.6V6.5h0.9V14H257z"/>
			<path id="XMLID_305_" class="st0" d="M264.5,13.4c-0.5,0.5-1.3,0.8-2,0.8c-0.8,0-1.5-0.3-2-0.8c-0.8-0.8-1-1.9-1-3.1
				s0.1-2.3,1-3.1c0.5-0.5,1.3-0.8,2-0.8c0.8,0,1.5,0.3,2,0.8c0.8,0.8,1,1.9,1,3.1C265.4,11.5,265.3,12.6,264.5,13.4z M263.8,7.8
				c-0.4-0.4-0.9-0.6-1.4-0.6s-1,0.2-1.4,0.6c-0.6,0.6-0.6,1.7-0.6,2.4s0,1.8,0.6,2.4c0.4,0.4,0.9,0.6,1.4,0.6s1-0.2,1.4-0.6
				c0.6-0.6,0.6-1.7,0.6-2.4S264.4,8.5,263.8,7.8z"/>
			<path id="XMLID_302_" class="st0" d="M271.5,13.4c-0.5,0.5-1.3,0.8-2,0.8s-1.5-0.3-2-0.8c-0.8-0.8-1-1.9-1-3.1s0.1-2.3,1-3.1
				c0.5-0.5,1.3-0.8,2-0.8s1.5,0.3,2,0.8c0.8,0.8,1,1.9,1,3.1S272.4,12.6,271.5,13.4z M270.9,7.8c-0.4-0.4-0.9-0.6-1.4-0.6
				s-1,0.2-1.4,0.6c-0.6,0.6-0.6,1.7-0.6,2.4s0,1.8,0.6,2.4c0.4,0.4,0.9,0.6,1.4,0.6s1-0.2,1.4-0.6c0.6-0.6,0.6-1.7,0.6-2.4
				S271.5,8.5,270.9,7.8z"/>
			<path id="XMLID_300_" class="st0" d="M274,14V6.5h0.9v6.6h3.6V14H274z"/>
			<path id="XMLID_297_" class="st0" d="M287,13.4c-0.5,0.5-1.3,0.8-2,0.8s-1.5-0.3-2-0.8c-0.8-0.8-1-1.9-1-3.1s0.1-2.3,1-3.1
				c0.5-0.5,1.3-0.8,2-0.8s1.5,0.3,2,0.8c0.8,0.8,1,1.9,1,3.1S287.8,12.6,287,13.4z M286.4,7.8c-0.4-0.4-0.9-0.6-1.4-0.6
				s-1,0.2-1.4,0.6c-0.6,0.6-0.6,1.7-0.6,2.4s0,1.8,0.6,2.4c0.4,0.4,0.9,0.6,1.4,0.6s1-0.2,1.4-0.6c0.6-0.6,0.6-1.7,0.6-2.4
				S287,8.5,286.4,7.8z"/>
			<path id="XMLID_295_" class="st0" d="M290.4,7.4v2.5h3.5v0.9h-3.5V14h-0.9V6.5h4.9v0.9H290.4z"/>
		</g>
	</g>
</g>
</svg>
